<svg xmlns="http://www.w3.org/2000/svg" width="58" height="69" viewBox="0 0 58 69"><defs><clipPath id="r2rva"><path fill="#fff" d="M7.285 51.744c-9.726-9.731-9.726-25.509 0-35.24C22.774 1.006 58 1 58 1s-.007 35.246-15.496 50.745c-9.726 9.73-25.494 9.73-35.22 0z"/></clipPath><clipPath id="r2rvb"><path fill="#fff" d="M2.937 68.6s-5.88-47.184 54.329-66.865"/></clipPath><clipPath id="r2rvc"><path fill="#fff" d="M8.81 44.352v-.735H7.342V24.513H8.81v18.37h28.633v1.469zm8.81-16.165v-.735h-.734V13.49h1.468v13.226h24.962v1.47zM33.772 14.96v-.735h-.734V7.613h1.468v5.878h15.418v1.47z"/></clipPath></defs><g><g><g><path fill="none" stroke="#fff" stroke-miterlimit="20" stroke-width="6" d="M7.285 51.744c-9.726-9.731-9.726-25.509 0-35.24C22.774 1.006 58 1 58 1v0s-.007 35.246-15.496 50.745c-9.726 9.73-25.494 9.73-35.22 0z" clip-path="url(&quot;#r2rva&quot;)"/></g><g><path fill="none" stroke="#fff" stroke-miterlimit="20" stroke-width="6" d="M2.937 68.6s-5.88-47.184 54.329-66.865" clip-path="url(&quot;#r2rvb&quot;)"/></g><g><path fill="none" stroke="#fff" stroke-miterlimit="20" stroke-width="6" d="M8.81 44.352v-.735H7.342V24.513H8.81v18.37h28.633v1.469zm8.81-16.165v-.735h-.734V13.49h1.468v13.226h24.962v1.47zM33.772 14.96v-.735h-.734V7.613h1.468v5.878h15.418v1.47z" clip-path="url(&quot;#r2rvc&quot;)"/></g></g></g></svg>